<svg width="424" height="87" viewBox="0 0 424 87" fill="none" xmlns="http://www.w3.org/2000/svg">
<path d="M174.744 38.072C174.744 30.776 169.112 22.52 161.048 22.52H141.4C140.056 22.52 138.392 25.08 138.392 26.36V71.16C138.392 74.68 141.848 75.448 144.6 75.448C146.84 75.448 151 74.936 151 71.608V60.472C151 59.768 152.088 59.192 152.664 59.192C153.752 59.192 154.392 59.704 155.032 60.472C155.992 61.688 163.48 71.288 164.44 72.44C166.68 75.256 169.816 75.448 173.208 75.448C175.064 75.448 179.416 75.896 179.416 72.888C179.416 72.76 179.352 72.44 179.352 72.44C179.288 72.12 179.032 71.224 178.968 71.16L167 56.632C166.424 55.992 166.552 55.544 166.552 54.712C166.552 50.616 174.744 46.904 174.744 38.072ZM154.84 32.696C158.36 32.696 161.496 35.256 161.496 38.968C161.496 42.68 158.296 45.176 154.712 45.176C153.24 45.176 151.192 44.536 151.192 42.552V34.872C151.192 33.144 153.624 32.696 154.84 32.696ZM182.093 58.808C182.093 68.664 190.733 76.28 200.397 76.28C204.557 76.28 215.437 74.424 215.437 68.536C215.437 66.04 211.981 64.312 209.805 64.312C206.861 64.312 204.557 66.488 201.485 66.488C199.501 66.488 195.661 65.912 195.661 63.096C195.661 62.328 196.493 60.728 197.453 60.728H214.093C216.397 60.728 217.549 58.104 217.549 56.312C217.549 47.352 208.717 41.272 200.461 41.272C190.797 41.272 182.093 48.952 182.093 58.808ZM196.621 51.96C196.621 50.04 198.925 49.4 200.461 49.4C201.997 49.4 203.917 50.04 203.917 51.896C203.917 53.944 202.061 53.688 200.461 53.688C199.501 53.688 196.621 53.816 196.621 51.96ZM222.319 42.168C222.319 45.24 226.863 47.032 226.863 49.4V71.608C226.863 74.68 230.639 75.448 232.815 75.448C234.991 75.448 238.767 74.68 238.767 71.608V49.4C238.767 45.88 246.255 46.776 246.255 41.912C246.255 36.984 238.959 38.456 238.959 33.848C238.959 28.664 247.983 30.072 247.983 23.864C247.983 21.624 246.127 19.512 243.695 19.512H236.847C229.295 19.512 228.271 29.944 226.607 34.872C225.647 37.816 222.319 38.84 222.319 42.168ZM276.811 69.688C276.811 65.656 271.307 64.696 271.243 60.92L270.347 25.528C270.347 24.44 269.003 22.52 267.787 22.52H261.835C260.939 22.52 259.275 24.184 259.275 25.08V62.2C259.275 68.344 264.075 75.064 270.283 75.064C273.483 75.064 276.811 73.272 276.811 69.688ZM282.343 58.808C282.343 68.664 290.983 76.28 300.647 76.28C304.807 76.28 315.687 74.424 315.687 68.536C315.687 66.04 312.231 64.312 310.055 64.312C307.111 64.312 304.807 66.488 301.735 66.488C299.751 66.488 295.911 65.912 295.911 63.096C295.911 62.328 296.743 60.728 297.703 60.728H314.343C316.647 60.728 317.799 58.104 317.799 56.312C317.799 47.352 308.967 41.272 300.711 41.272C291.047 41.272 282.343 48.952 282.343 58.808ZM296.871 51.96C296.871 50.04 299.175 49.4 300.711 49.4C302.247 49.4 304.167 50.04 304.167 51.896C304.167 53.944 302.311 53.688 300.711 53.688C299.751 53.688 296.871 53.816 296.871 51.96ZM320.905 59C320.905 68.792 329.993 76.28 339.465 76.28C343.049 76.28 348.681 75.768 348.681 71.288C348.681 65.976 342.537 66.104 338.825 66.04C335.561 64.632 333.641 62.392 333.641 58.808C333.641 56.184 335.625 51.32 338.825 51.32H345.225C347.465 51.32 348.681 47.8 348.681 46.008C348.681 41.848 342.217 41.272 339.273 41.272C329.609 41.272 320.905 49.208 320.905 59ZM356.183 54.52C356.311 63.288 355.735 76.28 367.895 76.28C370.903 76.28 375.383 75.512 375.383 71.608C375.383 66.68 368.535 65.272 368.535 62.648V54.072C368.535 50.744 374.999 50.872 374.999 46.648C374.999 42.168 369.559 43.128 368.535 39.608C368.535 38.712 368.727 30.2 365.143 30.2H359.575C355.286 30.2 356.567 38.008 355.735 39.992C354.583 42.872 351.895 43.64 351.895 46.904C351.895 50.296 356.119 51.448 356.183 54.52ZM380.985 60.728C380.985 61.688 381.817 64.12 383.161 64.12H401.913C409.017 64.12 402.169 75.448 411.961 75.448C418.809 75.448 415.609 69.944 418.553 66.04C420.985 62.776 423.737 63.352 423.737 58.808C423.737 53.816 417.465 53.56 417.465 49.4V25.08C417.465 24.312 415.481 22.52 414.713 22.52H403.641C401.337 22.52 399.417 25.976 398.521 27.64C395.833 32.504 384.76 52.472 382.713 56.248C382.009 57.464 380.985 59.128 380.985 60.728ZM398.841 50.488C398.841 47.928 400.953 41.272 404.281 41.272C404.985 41.272 405.753 41.72 405.753 42.552V50.232C405.753 51.832 403.321 53.24 401.913 53.24C400.249 53.24 398.841 52.216 398.841 50.488Z" fill="#3E3E3E"/>
<path d="M105 6H59C51.268 6 45 12.268 45 20V41C45 48.732 51.268 55 59 55H105C112.732 55 119 48.732 119 41V20C119 12.268 112.732 6 105 6Z" stroke="#3E3E3E" stroke-width="12" stroke-miterlimit="11.4737" stroke-linejoin="round"/>
<path d="M66 32H20C12.268 32 6 38.268 6 46V67C6 74.732 12.268 81 20 81H66C73.732 81 80 74.732 80 67V46C80 38.268 73.732 32 66 32Z" stroke="#7DA54A" stroke-width="12" stroke-miterlimit="11.4737" stroke-linejoin="round"/>
</svg>
